inDegrees=no
num_controls=7
num_derivatives=13
num_iterations=157
num_multipliers=7
num_parameters=0
num_slacks=7
num_states=26
objective=6.402795
objective_accelerations=0.578693
objective_balance=0.067361
objective_effort=0.507159
objective_height=5.153542
objective_ligament=0.096040
solver_duration=1342.070455
status=Solve_Succeeded
success=true
DataType=double
version=3
OpenSimVersion=4.4-2022-07-23-0e9fedc
endheader
time	/jointset/ground_pelvis/pelvis_tilt/value	/jointset/ground_pelvis/pelvis_tx/value	/jointset/ground_pelvis/pelvis_ty/value	/jointset/hip_r/hip_flexion_r/value	/jointset/hip_r/hip_adduction_r/value	/jointset/hip_r/hip_rotation_r/value	/jointset/back/lumbar_extension/value	/jointset/patellofemoral_r/patellar_flexion_r/value	/jointset/knee_r/knee_flexion_r/value	/jointset/knee_r/knee_adduction_r/value	/jointset/knee_r/knee_rotation_r/value	/jointset/ankle_r/ankle_angle_r/value	/jointset/subtalar_r/subtalar_angle_r/value	/jointset/ground_pelvis/pelvis_tilt/speed	/jointset/ground_pelvis/pelvis_tx/speed	/jointset/ground_pelvis/pelvis_ty/speed	/jointset/hip_r/hip_flexion_r/speed	/jointset/hip_r/hip_adduction_r/speed	/jointset/hip_r/hip_rotation_r/speed	/jointset/back/lumbar_extension/speed	/jointset/patellofemoral_r/patellar_flexion_r/speed	/jointset/knee_r/knee_flexion_r/speed	/jointset/knee_r/knee_adduction_r/speed	/jointset/knee_r/knee_rotation_r/speed	/jointset/ankle_r/ankle_angle_r/speed	/jointset/subtalar_r/subtalar_angle_r/speed	/forceset/tau_hip_flexion_r	/forceset/tau_hip_adduction_r	/forceset/tau_hip_rotation_r	/forceset/tau_knee_flexion_r	/forceset/tau_ankle_angle_r	/forceset/tau_subtalar_angle_r	/forceset/tau_lumbar_extension	lambda_cid13_p0	lambda_cid14_p0	lambda_cid14_p1	lambda_cid14_p2	lambda_cid14_p3	lambda_cid14_p4	lambda_cid14_p5	/jointset/ground_pelvis/pelvis_tilt/accel	/jointset/ground_pelvis/pelvis_tx/accel	/jointset/ground_pelvis/pelvis_ty/accel	/jointset/hip_r/hip_flexion_r/accel	/jointset/hip_r/hip_adduction_r/accel	/jointset/hip_r/hip_rotation_r/accel	/jointset/back/lumbar_extension/accel	/jointset/patellofemoral_r/patellar_flexion_r/accel	/jointset/knee_r/knee_flexion_r/accel	/jointset/knee_r/knee_adduction_r/accel	/jointset/knee_r/knee_rotation_r/accel	/jointset/ankle_r/ankle_angle_r/accel	/jointset/subtalar_r/subtalar_angle_r/accel	gamma_cid13_p0	gamma_cid14_p0	gamma_cid14_p1	gamma_cid14_p2	gamma_cid14_p3	gamma_cid14_p4	gamma_cid14_p5
0.5	-0.1613581140932233	0.03180329159190947	0.8343816492082289	0.8518317903945508	-0.2427287850461469	-0.09453769852065025	-0.3252426070864371	0.7935673562001306	0.7935673562000529	0.0624602153827428	0.1745261453737514	0.2733423919553551	0.04171280055064534	-0.4292231027375185	-0.1366953807906475	-0.4460154328741217	1.852133051003027	-0.02670957791799603	0.392921600165676	-0.5987418507116434	1.944955910311204	1.944955910311205	-0.1829808487098409	-4.003332565200326e-05	0.6113843795105816	0.1252819286279334	-0.115819736048512	-0.01760748008483496	0.01385798340160062	-0.3446324541900366	0.06132985856146493	-0.007978918144926513	0.1612011056987897	-25.77473183720872	-21.8545601724439	-3.51687114940998	-3.291245069270688	3.462681761465048	-661.8371556185349	59.17957543849018	0.2266164144506701	0.372018089144441	-0.4605168765814999	-1.029086441837761	0.06914887295232973	-0.3109264485527595	1.459306866319083	-1.334283837622588	-1.334283837622603	0.5789498296244935	-0.02687189577715618	-0.6435855680181233	-0.002891164720188521	-1.51039894798297e-07	-1.089546918488014e-07	1.397144498018082e-06	-8.250128669710057e-07	-8.814171314140732e-08	-1.889755587760094e-07	1.013568928058619e-06
0.51	-0.1656382067386217	0.0304551286247688	0.8298994857844265	0.8702987134368345	-0.2429930869453362	-0.0906246713876242	-0.3311564952740214	0.8129473139062855	0.8129473139061891	0.06066053120677859	0.1745257049269746	0.2794229277296376	0.04296428859166646	-0.4267346345472874	-0.1329212492522998	-0.4503153062672108	1.840997020081	-0.02614660459281066	0.3896647138610898	-0.5839611536996092	1.930761998840786	1.93076199884079	-0.1769534519953021	-4.657090051483732e-05	0.604637652929803	0.124998267884332	-0.1223830633196714	-0.01602030730706871	0.01433171160112983	-0.3480403366275388	0.05752239409018347	-0.006960346679980991	0.1670365966807386	-24.56281189242877	-23.26624834512264	-3.423746183127607	-3.189509652486925	3.965574163953757	-666.2217009106604	59.32250175505501	0.2690701471836683	0.3824876622858169	-0.399466477659588	-1.194054994678695	0.05048255719348538	-0.3361396914013744	1.498646084949284	-1.502960300911237	-1.502960300910891	0.6151815290336675	0.01254899985981597	-0.7030161131980045	-0.04359573145797142	-1.415760549151562e-07	-1.004426781810424e-07	1.312664336211627e-06	-7.7377900416981e-07	-8.619921851835892e-08	-1.700013154435392e-07	9.50222136616776e-07
0.52	-0.1698915930769423	0.02914518236823276	0.8253773748452964	0.8886466374544382	-0.2432516369122842	-0.08674482711165275	-0.3369203374982259	0.8321771293979012	0.8321771293977929	0.05892123038529337	0.1745252178421053	0.2854334362560945	0.04421244158479651	-0.4238818413220762	-0.1290520386697203	-0.4540049359397521	1.828333246067235	-0.02555919147195403	0.3862850287569073	-0.5687326580354203	1.914927467403972	1.914927467403978	-0.1709041778141633	-4.936094734613742e-05	0.5973789299454108	0.1246149190496138	-0.1289463905908514	-0.01443313452931594	0.01480543980071477	-0.3514482190650444	0.05371492961889848	-0.005941775215056704	0.1728720876626695	-23.34248048004798	-24.68362785413037	-3.327073673842538	-3.093530537838742	4.466316071758509	-670.7003674625753	59.52778936275996	0.2994814214468871	0.3910338979906303	-0.3384681324719457	-1.334635060185243	0.07403683208658746	-0.3354862084720919	1.548866596750148	-1.662407830901983	-1.662407830901962	0.5833253229444509	-0.02612239017082356	-0.7459848487411335	-0.02282878294359691	-1.314994404557844e-07	-9.18764257716613e-08	1.220877295677002e-06	-7.202345885187504e-07	-8.325651514431206e-08	-1.52326973634962e-07	8.823606837159522e-07
0.53	-0.1741147204314903	0.02787437177072472	0.8208214520581067	0.906860469761259	-0.2435041284937799	-0.08289929935717007	-0.3425297107077792	0.8512405693086375	0.8512405693085436	0.05724239172649769	0.174524597212657	0.2913689222444751	0.0454563565615862	-0.420687132977803	-0.1250967879371293	-0.4570734267171101	1.814185916361359	-0.02493610731402207	0.382803350129763	-0.5530773336150699	1.897498211423873	1.897498211423867	-0.1648608925225574	-7.37446826742493e-05	0.5896416745970149	0.1241504766186975	-0.1353372672623679	-0.01297656483446159	0.01526061668508483	-0.3550986614809972	0.0502784784139118	-0.00507569875248898	0.1785672219628171	-22.11690674574523	-25.99331218234309	-3.28660515108804	-2.978502364775526	4.904019099530297	-675.2509018350175	59.66751520136157	0.33793044848918	0.3997482524217357	-0.2751389419187538	-1.49188810757263	0.05687626377516468	-0.3572608868687243	1.583562904162749	-1.822504738084828	-1.822504738086539	0.6153750327784261	0.009447470011737839	-0.7991122177180479	-0.06078890370084675	-1.224352989309997e-07	-8.489254464008347e-08	1.1448744137543e-06	-6.709718608124984e-07	-7.976380769880382e-08	-1.4040181936663e-07	8.253685139943746e-07
0.54	-0.1783042077210813	0.02664350919884829	0.8162380244848337	0.9249254075346637	-0.2437503028224623	-0.07908913882837128	-0.3479805911652336	0.8701218526082615	0.8701218526081945	0.0556240949007215	0.1745237415129246	0.297224732411406	0.04669511972796024	-0.4171538283306587	-0.1210624335433986	-0.4595058931564902	1.79855433938413	-0.02429574091095339	0.3792115836212916	-0.5370341076153035	1.878496145182939	1.878496145182921	-0.1587958112105663	-9.637500897730017e-05	0.5814437656554471	0.1235845569663718	-0.141728143933896	-0.01151999513959554	0.015715793569531	-0.358749103896952	0.04684202720892926	-0.004209622289906269	0.1842623562629503	-20.88969635859788	-27.30931352265103	-3.243142037386144	-2.86863577531301	5.340933191091278	-679.9038875753151	59.8648968757325	0.3672006820213158	0.4068546302183695	-0.211263264876365	-1.631484514456004	0.07749328111392491	-0.3575037847375885	1.626446912633533	-1.97696988306894	-1.976969883068929	0.5876845270214283	-0.02577170836574442	-0.838115567375803	-0.04312422722552004	-1.144913402274604e-07	-7.965937215628805e-08	1.086334856253299e-06	-6.264463197685865e-07	-7.566258511040211e-08	-1.348374683343142e-07	7.804019341732399e-07
